<svg xmlns="http://www.w3.org/2000/svg" xmlns:xlink="http://www.w3.org/1999/xlink" width="625" zoomAndPan="magnify" viewBox="0 0 468.75 446.999989" height="596" preserveAspectRatio="xMidYMid meet" version="1.0"><defs><g/><clipPath id="3ef1991a18"><path d="M 386 190 L 456.835938 190 L 456.835938 258 L 386 258 Z M 386 190 " clip-rule="nonzero"/></clipPath></defs><g fill="#000000" fill-opacity="1"><g transform="translate(229.800053, 211.358632)"><g><path d="M 5.875 -3.859375 L 6.125 -3.453125 C 5.8125 -2.359375 5.367188 -1.085938 4.796875 0.359375 C 4.234375 1.816406 3.648438 3.171875 3.046875 4.421875 L 0.96875 4.390625 C 1.289062 3.253906 1.644531 1.84375 2.03125 0.15625 C 2.425781 -1.53125 2.695312 -2.882812 2.84375 -3.90625 Z M 5.875 -3.859375 "/></g></g></g><path fill="#d9d9d9" d="M 212.296875 46.191406 L 209.589844 61.96875 C 209.144531 64.570312 210.214844 67.199219 212.351562 68.753906 C 214.496094 70.308594 217.324219 70.507812 219.65625 69.28125 L 233.824219 61.828125 L 247.992188 69.28125 C 249.003906 69.816406 250.113281 70.078125 251.214844 70.078125 C 252.652344 70.078125 254.089844 69.636719 255.296875 68.753906 C 257.433594 67.199219 258.5 64.570312 258.058594 61.96875 L 255.351562 46.191406 L 266.8125 35.015625 C 268.699219 33.171875 269.386719 30.417969 268.566406 27.90625 C 267.75 25.394531 265.578125 23.5625 262.960938 23.179688 L 247.121094 20.875 L 240.039062 6.523438 C 237.703125 1.785156 229.9375 1.785156 227.601562 6.523438 L 220.515625 20.875 L 204.679688 23.179688 C 202.0625 23.5625 199.890625 25.394531 199.074219 27.90625 C 198.253906 30.417969 198.933594 33.171875 200.828125 35.015625 Z M 212.296875 46.191406 " fill-opacity="1" fill-rule="nonzero"/><path fill="#d9d9d9" d="M 80.480469 101.695312 L 77.773438 117.46875 C 77.328125 120.070312 78.398438 122.703125 80.535156 124.253906 C 82.679688 125.808594 85.503906 126.011719 87.839844 124.78125 L 102.007812 117.332031 L 116.175781 124.78125 C 117.1875 125.316406 118.296875 125.582031 119.398438 125.582031 C 120.835938 125.582031 122.273438 125.136719 123.480469 124.253906 C 125.617188 122.703125 126.683594 120.070312 126.242188 117.46875 L 123.535156 101.695312 L 134.996094 90.515625 C 136.882812 88.671875 137.570312 85.917969 136.75 83.40625 C 135.933594 80.894531 133.761719 79.0625 131.144531 78.683594 L 115.308594 76.378906 L 108.222656 62.023438 C 105.886719 57.285156 98.121094 57.285156 95.785156 62.023438 L 88.699219 76.378906 L 72.863281 78.683594 C 70.246094 79.0625 68.074219 80.894531 67.257812 83.40625 C 66.4375 85.917969 67.117188 88.671875 69.011719 90.515625 Z M 80.480469 101.695312 " fill-opacity="1" fill-rule="nonzero"/><path fill="#d9d9d9" d="M 344.113281 101.695312 L 341.40625 117.46875 C 340.960938 120.070312 342.03125 122.703125 344.167969 124.253906 C 346.3125 125.808594 349.140625 126.011719 351.472656 124.78125 L 365.640625 117.332031 L 379.804688 124.78125 C 380.820312 125.316406 381.929688 125.582031 383.03125 125.582031 C 384.46875 125.582031 385.90625 125.136719 387.113281 124.253906 C 389.25 122.703125 390.316406 120.070312 389.875 117.46875 L 387.167969 101.695312 L 398.628906 90.515625 C 400.515625 88.671875 401.203125 85.917969 400.382812 83.40625 C 399.566406 80.894531 397.394531 79.0625 394.777344 78.683594 L 378.9375 76.378906 L 371.855469 62.023438 C 369.519531 57.285156 361.753906 57.285156 359.417969 62.023438 L 352.332031 76.378906 L 336.496094 78.683594 C 333.878906 79.0625 331.707031 80.894531 330.890625 83.40625 C 330.070312 85.917969 330.75 88.671875 332.644531 90.515625 Z M 344.113281 101.695312 " fill-opacity="1" fill-rule="nonzero"/><path fill="#d9d9d9" d="M 131.152344 342.3125 L 115.3125 340.011719 L 108.230469 325.65625 C 105.890625 320.917969 98.128906 320.917969 95.789062 325.65625 L 88.707031 340.011719 L 72.867188 342.3125 C 70.253906 342.695312 68.082031 344.527344 67.261719 347.039062 C 66.445312 349.550781 67.125 352.304688 69.019531 354.148438 L 80.480469 365.320312 L 77.773438 381.097656 C 77.328125 383.699219 78.398438 386.328125 80.535156 387.882812 C 82.679688 389.433594 85.503906 389.628906 87.839844 388.410156 L 102.007812 380.957031 L 116.175781 388.410156 C 117.1875 388.941406 118.296875 389.207031 119.398438 389.207031 C 120.835938 389.207031 122.273438 388.761719 123.480469 387.882812 C 125.617188 386.328125 126.683594 383.699219 126.242188 381.097656 L 123.535156 365.320312 L 134.996094 354.144531 C 136.882812 352.296875 137.570312 349.542969 136.75 347.03125 C 135.933594 344.519531 133.769531 342.695312 131.152344 342.3125 Z M 131.152344 342.3125 " fill-opacity="1" fill-rule="nonzero"/><path fill="#d9d9d9" d="M 394.785156 342.3125 L 378.945312 340.011719 L 371.863281 325.65625 C 369.523438 320.917969 361.761719 320.917969 359.421875 325.65625 L 352.339844 340.011719 L 336.5 342.3125 C 333.886719 342.695312 331.714844 344.527344 330.894531 347.039062 C 330.078125 349.550781 330.757812 352.304688 332.652344 354.148438 L 344.113281 365.320312 L 341.40625 381.097656 C 340.960938 383.699219 342.03125 386.328125 344.167969 387.882812 C 346.3125 389.433594 349.140625 389.628906 351.472656 388.410156 L 365.640625 380.957031 L 379.804688 388.410156 C 380.820312 388.941406 381.929688 389.207031 383.03125 389.207031 C 384.46875 389.207031 385.90625 388.761719 387.113281 387.882812 C 389.25 386.328125 390.316406 383.699219 389.875 381.097656 L 387.167969 365.320312 L 398.628906 354.144531 C 400.515625 352.296875 401.203125 349.542969 400.382812 347.03125 C 399.566406 344.519531 397.402344 342.695312 394.785156 342.3125 Z M 394.785156 342.3125 " fill-opacity="1" fill-rule="nonzero"/><g clip-path="url(#3ef1991a18)"><path fill="#d9d9d9" d="M 455.886719 215.222656 C 455.066406 212.710938 452.894531 210.878906 450.28125 210.496094 L 434.441406 208.195312 L 427.359375 193.839844 C 425.019531 189.101562 417.257812 189.101562 414.917969 193.839844 L 407.835938 208.195312 L 391.996094 210.496094 C 389.378906 210.878906 387.210938 212.710938 386.390625 215.222656 C 385.570312 217.734375 386.25 220.488281 388.144531 222.332031 L 399.605469 233.503906 L 396.902344 249.28125 C 396.457031 251.882812 397.527344 254.511719 399.664062 256.066406 C 401.800781 257.617188 404.628906 257.820312 406.96875 256.59375 L 421.132812 249.140625 L 435.300781 256.59375 C 436.3125 257.125 437.425781 257.390625 438.527344 257.390625 C 439.964844 257.390625 441.398438 256.945312 442.605469 256.066406 C 444.742188 254.511719 445.8125 251.882812 445.367188 249.28125 L 442.660156 233.503906 L 454.125 222.328125 C 456.023438 220.488281 456.703125 217.734375 455.886719 215.222656 Z M 455.886719 215.222656 " fill-opacity="1" fill-rule="nonzero"/></g><path fill="#d9d9d9" d="M 70.738281 249.285156 L 68.035156 233.511719 L 79.496094 222.332031 C 81.382812 220.488281 82.066406 217.734375 81.25 215.222656 C 80.429688 212.710938 78.257812 210.878906 75.644531 210.496094 L 59.804688 208.195312 L 52.722656 193.839844 C 50.382812 189.101562 42.621094 189.101562 40.28125 193.839844 L 33.199219 208.195312 L 17.359375 210.496094 C 14.746094 210.878906 12.574219 212.710938 11.753906 215.222656 C 10.9375 217.734375 11.617188 220.488281 13.511719 222.332031 L 24.972656 233.503906 L 22.265625 249.28125 C 21.820312 251.882812 22.890625 254.511719 25.027344 256.066406 C 27.171875 257.617188 30 257.820312 32.332031 256.59375 L 46.5 249.140625 L 60.664062 256.59375 C 61.679688 257.125 62.789062 257.390625 63.890625 257.390625 C 65.328125 257.390625 66.761719 256.945312 67.972656 256.066406 C 70.113281 254.519531 71.183594 251.886719 70.738281 249.285156 Z M 70.738281 249.285156 " fill-opacity="1" fill-rule="nonzero"/><path fill="#d9d9d9" d="M 262.96875 397.816406 L 247.128906 395.511719 L 240.046875 381.160156 C 237.707031 376.421875 229.945312 376.421875 227.605469 381.160156 L 220.523438 395.511719 L 204.683594 397.816406 C 202.070312 398.199219 199.898438 400.027344 199.078125 402.539062 C 198.261719 405.050781 198.941406 407.804688 200.835938 409.652344 L 212.296875 420.820312 L 209.589844 436.597656 C 209.144531 439.199219 210.214844 441.828125 212.351562 443.382812 C 214.496094 444.945312 217.324219 445.136719 219.65625 443.910156 L 233.824219 436.457031 L 247.992188 443.910156 C 249.003906 444.445312 250.113281 444.707031 251.214844 444.707031 C 252.652344 444.707031 254.089844 444.265625 255.296875 443.382812 C 257.433594 441.828125 258.5 439.199219 258.058594 436.597656 L 255.351562 420.820312 L 266.8125 409.644531 C 268.699219 407.800781 269.386719 405.042969 268.566406 402.535156 C 267.75 400.023438 265.585938 398.199219 262.96875 397.816406 Z M 262.96875 397.816406 " fill-opacity="1" fill-rule="nonzero"/><path fill="#d9d9d9" d="M 234.21875 169.398438 C 203.617188 169.398438 178.71875 194.296875 178.71875 224.902344 C 178.71875 255.503906 203.617188 280.402344 234.21875 280.402344 C 264.820312 280.402344 289.71875 255.503906 289.71875 224.902344 C 289.71875 194.296875 264.820312 169.398438 234.21875 169.398438 Z M 232.609375 250.152344 C 231.359375 251.652344 229.542969 252.554688 227.59375 252.644531 C 227.488281 252.652344 227.386719 252.652344 227.28125 252.652344 C 225.441406 252.652344 223.679688 251.921875 222.375 250.617188 L 208.5 236.742188 L 218.3125 226.933594 L 226.816406 235.4375 L 256.640625 199.648438 L 267.296875 208.527344 Z M 232.609375 250.152344 " fill-opacity="1" fill-rule="nonzero"/><path fill="#d9d9d9" d="M 337.210938 154.914062 L 237.5625 100.121094 C 235.480469 98.972656 232.957031 98.972656 230.875 100.121094 L 131.230469 154.914062 C 128.820312 156.238281 127.421875 158.859375 127.664062 161.59375 L 133.617188 230.015625 C 136.675781 265.257812 155.246094 296.835938 184.550781 316.660156 L 230.339844 347.613281 C 231.511719 348.40625 232.871094 348.800781 234.226562 348.800781 C 235.578125 348.800781 236.9375 348.40625 238.109375 347.613281 L 283.898438 316.652344 C 313.203125 296.835938 331.769531 265.257812 334.835938 230.011719 L 340.789062 161.59375 C 341.019531 158.859375 339.617188 156.238281 337.210938 154.914062 Z M 234.21875 294.277344 C 195.964844 294.277344 164.84375 263.15625 164.84375 224.902344 C 164.84375 186.644531 195.964844 155.523438 234.21875 155.523438 C 272.472656 155.523438 303.597656 186.644531 303.597656 224.902344 C 303.597656 263.15625 272.472656 294.277344 234.21875 294.277344 Z M 234.21875 294.277344 " fill-opacity="1" fill-rule="nonzero"/></svg>